# Blender v2.93.4 OBJ File: 'SHURRIKEN.blend'
# www.blender.org
mtllib SHURRIKEN.mtl
o Cube
v 0.653850 0.058854 -0.722374
v 0.420064 0.065768 -0.542789
v 0.233933 0.031155 -0.238519
v 0.270662 0.010379 -0.196340
v 1.029052 0.095795 -0.776834
v 0.424033 0.103329 -0.489499
v 0.321998 0.095296 -0.020702
v -0.012506 0.075140 0.129227
v -0.653850 0.058854 -0.722374
v -0.420064 0.065768 -0.542789
v -0.233933 0.031155 -0.238519
v -0.270662 0.010379 -0.196340
v -1.029052 0.095795 -0.776834
v -0.424033 0.103329 -0.489499
v -0.321998 0.095296 -0.020702
v 0.012506 0.075140 0.129227
v 0.653850 0.058854 0.722374
v 0.420064 0.065768 0.542789
v 0.233933 0.031155 0.238519
v 0.270662 0.010379 0.196340
v 1.029052 0.095795 0.776834
v 0.424033 0.103329 0.489499
v 0.321998 0.095296 0.020702
v -0.012506 0.075140 -0.129227
v -0.653850 0.058854 0.722374
v -0.420064 0.065768 0.542789
v -0.233933 0.031155 0.238519
v -0.270662 0.010379 0.196340
v -1.029052 0.095795 0.776834
v -0.424033 0.103329 0.489499
v -0.321998 0.095296 0.020702
v 0.012506 0.075140 -0.129227
v 0.121237 0.094178 -0.130270
v 0.395254 0.091244 -0.536866
v 0.533638 0.064083 -0.664979
v 0.067671 0.092009 0.172377
v 0.245533 0.007852 -0.214736
v 0.823702 0.103914 -0.721576
v 0.219598 0.065248 -0.065630
v 0.411548 0.040256 -0.496390
v 0.093606 0.034613 0.023271
v 0.770135 0.101746 -0.418929
v 0.962086 0.076753 -0.849689
v 0.367623 0.031679 -0.383325
v -0.121237 0.094178 -0.130270
v -0.395254 0.091244 -0.536867
v -0.533638 0.064083 -0.664979
v -0.067671 0.092009 0.172377
v -0.245533 0.007852 -0.214736
v -0.823702 0.103914 -0.721576
v -0.219598 0.065248 -0.065630
v -0.411548 0.040256 -0.496390
v -0.093606 0.034613 0.023271
v -0.770136 0.101746 -0.418929
v -0.962086 0.076753 -0.849689
v -0.367623 0.031679 -0.383325
v 0.121237 0.094178 0.130270
v 0.395254 0.091244 0.536867
v 0.533638 0.064083 0.664979
v 0.067671 0.092009 -0.172377
v 0.245533 0.007852 0.214736
v 0.823702 0.103914 0.721576
v 0.219598 0.065248 0.065630
v 0.411548 0.040256 0.496390
v 0.093606 0.034613 -0.023271
v 0.770136 0.101746 0.418929
v 0.962086 0.076753 0.849689
v 0.367623 0.031679 0.383325
v -0.121237 0.094178 0.130270
v -0.395254 0.091244 0.536866
v -0.533638 0.064083 0.664979
v -0.067671 0.092009 -0.172377
v -0.245533 0.007852 0.214736
v -0.823702 0.103914 0.721576
v -0.219598 0.065248 0.065630
v -0.411548 0.040256 0.496390
v -0.093606 0.034613 -0.023271
v -0.770135 0.101746 0.418929
v -0.962086 0.076753 0.849689
v -0.367623 0.031679 0.383325
v 0.656177 0.072523 -0.495544
v 0.058136 0.043505 0.105583
v 0.456268 0.109654 -0.243431
v 0.179094 0.061406 -0.218914
v 0.379004 0.024275 -0.471027
v 0.777136 0.090424 -0.820040
v -0.656177 0.072523 -0.495544
v -0.058136 0.043505 0.105583
v -0.456268 0.109654 -0.243431
v -0.179094 0.061406 -0.218914
v -0.379004 0.024275 -0.471027
v -0.777136 0.090424 -0.820040
v 0.656177 0.072523 0.495544
v 0.058136 0.043505 -0.105583
v 0.456268 0.109654 0.243431
v 0.179094 0.061406 0.218914
v 0.379004 0.024275 0.471027
v 0.777136 0.090424 0.820040
v -0.656177 0.072523 0.495544
v -0.058136 0.043505 -0.105583
v -0.456268 0.109654 0.243431
v -0.179094 0.061406 0.218914
v -0.379004 0.024275 0.471027
v -0.777136 0.090424 0.820040
vt 0.625000 0.500000
vt 0.750000 0.500000
vt 0.750000 0.625000
vt 0.625000 0.625000
vt 0.875000 0.500000
vt 0.875000 0.625000
vt 0.875000 0.750000
vt 0.750000 0.750000
vt 0.625000 0.750000
vt 0.375000 0.750000
vt 0.500000 0.750000
vt 0.500000 0.875000
vt 0.375000 0.875000
vt 0.625000 0.875000
vt 0.625000 1.000000
vt 0.500000 1.000000
vt 0.375000 1.000000
vt 0.375000 0.000000
vt 0.500000 0.000000
vt 0.500000 0.125000
vt 0.375000 0.125000
vt 0.625000 0.000000
vt 0.625000 0.125000
vt 0.625000 0.250000
vt 0.500000 0.250000
vt 0.375000 0.250000
vt 0.125000 0.500000
vt 0.250000 0.500000
vt 0.250000 0.625000
vt 0.125000 0.625000
vt 0.375000 0.500000
vt 0.375000 0.625000
vt 0.250000 0.750000
vt 0.125000 0.750000
vt 0.500000 0.500000
vt 0.500000 0.625000
vt 0.500000 0.375000
vt 0.375000 0.375000
vt 0.625000 0.375000
vt 0.625000 0.500000
vt 0.625000 0.625000
vt 0.750000 0.625000
vt 0.750000 0.500000
vt 0.625000 0.750000
vt 0.750000 0.750000
vt 0.875000 0.750000
vt 0.875000 0.625000
vt 0.875000 0.500000
vt 0.375000 0.750000
vt 0.375000 0.875000
vt 0.500000 0.875000
vt 0.500000 0.750000
vt 0.375000 1.000000
vt 0.500000 1.000000
vt 0.625000 1.000000
vt 0.625000 0.875000
vt 0.375000 0.000000
vt 0.375000 0.125000
vt 0.500000 0.125000
vt 0.500000 0.000000
vt 0.375000 0.250000
vt 0.500000 0.250000
vt 0.625000 0.250000
vt 0.625000 0.125000
vt 0.625000 0.000000
vt 0.125000 0.500000
vt 0.125000 0.625000
vt 0.250000 0.625000
vt 0.250000 0.500000
vt 0.125000 0.750000
vt 0.250000 0.750000
vt 0.375000 0.625000
vt 0.375000 0.500000
vt 0.500000 0.625000
vt 0.500000 0.500000
vt 0.375000 0.375000
vt 0.500000 0.375000
vt 0.625000 0.375000
vt 0.625000 0.500000
vt 0.625000 0.625000
vt 0.750000 0.625000
vt 0.750000 0.500000
vt 0.625000 0.750000
vt 0.750000 0.750000
vt 0.875000 0.750000
vt 0.875000 0.625000
vt 0.875000 0.500000
vt 0.375000 0.750000
vt 0.375000 0.875000
vt 0.500000 0.875000
vt 0.500000 0.750000
vt 0.375000 1.000000
vt 0.500000 1.000000
vt 0.625000 1.000000
vt 0.625000 0.875000
vt 0.375000 0.000000
vt 0.375000 0.125000
vt 0.500000 0.125000
vt 0.500000 0.000000
vt 0.375000 0.250000
vt 0.500000 0.250000
vt 0.625000 0.250000
vt 0.625000 0.125000
vt 0.625000 0.000000
vt 0.125000 0.500000
vt 0.125000 0.625000
vt 0.250000 0.625000
vt 0.250000 0.500000
vt 0.125000 0.750000
vt 0.250000 0.750000
vt 0.375000 0.625000
vt 0.375000 0.500000
vt 0.500000 0.625000
vt 0.500000 0.500000
vt 0.375000 0.375000
vt 0.500000 0.375000
vt 0.625000 0.375000
vt 0.625000 0.500000
vt 0.750000 0.500000
vt 0.750000 0.625000
vt 0.625000 0.625000
vt 0.875000 0.500000
vt 0.875000 0.625000
vt 0.875000 0.750000
vt 0.750000 0.750000
vt 0.625000 0.750000
vt 0.375000 0.750000
vt 0.500000 0.750000
vt 0.500000 0.875000
vt 0.375000 0.875000
vt 0.625000 0.875000
vt 0.625000 1.000000
vt 0.500000 1.000000
vt 0.375000 1.000000
vt 0.375000 0.000000
vt 0.500000 0.000000
vt 0.500000 0.125000
vt 0.375000 0.125000
vt 0.625000 0.000000
vt 0.625000 0.125000
vt 0.625000 0.250000
vt 0.500000 0.250000
vt 0.375000 0.250000
vt 0.125000 0.500000
vt 0.250000 0.500000
vt 0.250000 0.625000
vt 0.125000 0.625000
vt 0.375000 0.500000
vt 0.375000 0.625000
vt 0.250000 0.750000
vt 0.125000 0.750000
vt 0.500000 0.500000
vt 0.500000 0.625000
vt 0.500000 0.375000
vt 0.375000 0.375000
vt 0.625000 0.375000
vn 0.1035 -0.9929 0.0588
vn 0.1567 -0.9795 0.1266
vn 0.1718 -0.9708 0.1675
vn 0.1782 -0.9745 0.1360
vn -0.0410 0.9897 -0.1375
vn 0.6697 -0.6465 0.3654
vn 0.3225 -0.8956 0.3066
vn -0.3065 -0.9050 0.2950
vn -0.0788 0.9969 -0.0068
vn 0.0812 0.9903 0.1128
vn 0.0369 0.9992 0.0137
vn -0.0319 0.9993 -0.0215
vn -0.5343 0.7621 -0.3656
vn -0.5094 -0.7674 -0.3894
vn -0.4158 -0.8672 -0.2739
vn -0.7040 -0.6101 -0.3634
vn -0.8594 -0.0320 -0.5103
vn -0.0101 -0.9891 -0.1471
vn 0.8341 0.1990 0.5145
vn -0.2649 0.9627 -0.0558
vn -0.0850 0.9879 -0.1294
vn 0.0124 0.9808 -0.1945
vn -0.1999 -0.8300 -0.5207
vn -0.5792 0.3998 -0.7104
vn -0.1035 -0.9929 0.0588
vn -0.1782 -0.9745 0.1360
vn -0.1718 -0.9708 0.1675
vn -0.1567 -0.9795 0.1266
vn 0.0410 0.9897 -0.1375
vn 0.3065 -0.9050 0.2950
vn -0.3225 -0.8956 0.3066
vn -0.6697 -0.6465 0.3654
vn 0.0788 0.9969 -0.0068
vn 0.0319 0.9993 -0.0215
vn -0.0369 0.9992 0.0137
vn -0.0812 0.9903 0.1128
vn 0.5343 0.7621 -0.3656
vn 0.7040 -0.6101 -0.3634
vn 0.4158 -0.8672 -0.2739
vn 0.5094 -0.7674 -0.3894
vn 0.8594 -0.0320 -0.5103
vn 0.2649 0.9627 -0.0558
vn -0.8341 0.1990 0.5145
vn 0.0101 -0.9891 -0.1471
vn 0.0850 0.9879 -0.1294
vn 0.5792 0.3998 -0.7104
vn 0.1999 -0.8300 -0.5207
vn -0.0124 0.9808 -0.1945
vn 0.1035 -0.9929 -0.0588
vn 0.1782 -0.9745 -0.1360
vn 0.1718 -0.9708 -0.1675
vn 0.1567 -0.9795 -0.1266
vn -0.0410 0.9897 0.1375
vn -0.3065 -0.9050 -0.2950
vn 0.3225 -0.8956 -0.3066
vn 0.6697 -0.6465 -0.3654
vn -0.0788 0.9969 0.0068
vn -0.0319 0.9993 0.0215
vn 0.0369 0.9992 -0.0137
vn 0.0812 0.9903 -0.1128
vn -0.5343 0.7621 0.3656
vn -0.7040 -0.6101 0.3634
vn -0.4158 -0.8672 0.2739
vn -0.5094 -0.7674 0.3894
vn -0.8594 -0.0320 0.5103
vn -0.2649 0.9627 0.0558
vn 0.8341 0.1990 -0.5145
vn -0.0101 -0.9891 0.1471
vn -0.0850 0.9879 0.1294
vn -0.5792 0.3998 0.7104
vn -0.1999 -0.8300 0.5207
vn 0.0124 0.9808 0.1945
vn -0.1035 -0.9929 -0.0588
vn -0.1567 -0.9795 -0.1266
vn -0.1718 -0.9708 -0.1675
vn -0.1782 -0.9745 -0.1360
vn 0.0410 0.9897 0.1375
vn -0.6697 -0.6465 -0.3654
vn -0.3225 -0.8956 -0.3066
vn 0.3065 -0.9050 -0.2950
vn 0.0788 0.9969 0.0068
vn -0.0812 0.9903 -0.1128
vn -0.0369 0.9992 -0.0137
vn 0.0319 0.9993 0.0215
vn 0.5343 0.7621 0.3656
vn 0.5094 -0.7674 0.3894
vn 0.4158 -0.8672 0.2739
vn 0.7040 -0.6101 0.3634
vn 0.8594 -0.0320 0.5103
vn 0.0101 -0.9891 0.1471
vn -0.8341 0.1990 -0.5145
vn 0.2649 0.9627 0.0558
vn 0.0850 0.9879 0.1294
vn -0.0124 0.9808 0.1945
vn 0.1999 -0.8300 0.5207
vn 0.5792 0.3998 0.7104
usemtl Material
s off
f 1/1/1 43/2/1 81/3/1 40/4/1
f 43/2/2 5/5/2 42/6/2 81/3/2
f 81/3/3 42/6/3 7/7/3 39/8/3
f 40/4/4 81/3/4 39/8/4 3/9/4
f 4/10/5 37/11/5 82/12/5 41/13/5
f 37/11/6 3/9/6 39/14/6 82/12/6
f 82/12/7 39/14/7 7/15/7 36/16/7
f 41/13/8 82/12/8 36/16/8 8/17/8
f 8/18/9 36/19/9 83/20/9 33/21/9
f 36/19/10 7/22/10 42/23/10 83/20/10
f 83/20/11 42/23/11 5/24/11 38/25/11
f 33/21/12 83/20/12 38/25/12 6/26/12
f 6/27/13 34/28/13 84/29/13 33/30/13
f 34/28/14 2/31/14 44/32/14 84/29/14
f 84/29/15 44/32/15 4/10/15 41/33/15
f 33/30/16 84/29/16 41/33/16 8/34/16
f 2/31/17 35/35/17 85/36/17 44/32/17
f 35/35/18 1/1/18 40/4/18 85/36/18
f 85/36/19 40/4/19 3/9/19 37/11/19
f 44/32/20 85/36/20 37/11/20 4/10/20
f 6/26/21 38/25/21 86/37/21 34/38/21
f 38/25/22 5/24/22 43/39/22 86/37/22
f 86/37/23 43/39/23 1/1/23 35/35/23
f 34/38/24 86/37/24 35/35/24 2/31/24
f 9/40/25 52/41/25 87/42/25 55/43/25
f 52/41/26 11/44/26 51/45/26 87/42/26
f 87/42/27 51/45/27 15/46/27 54/47/27
f 55/43/28 87/42/28 54/47/28 13/48/28
f 12/49/29 53/50/29 88/51/29 49/52/29
f 53/50/30 16/53/30 48/54/30 88/51/30
f 88/51/31 48/54/31 15/55/31 51/56/31
f 49/52/32 88/51/32 51/56/32 11/44/32
f 16/57/33 45/58/33 89/59/33 48/60/33
f 45/58/34 14/61/34 50/62/34 89/59/34
f 89/59/35 50/62/35 13/63/35 54/64/35
f 48/60/36 89/59/36 54/64/36 15/65/36
f 14/66/37 45/67/37 90/68/37 46/69/37
f 45/67/38 16/70/38 53/71/38 90/68/38
f 90/68/39 53/71/39 12/49/39 56/72/39
f 46/69/40 90/68/40 56/72/40 10/73/40
f 10/73/41 56/72/41 91/74/41 47/75/41
f 56/72/42 12/49/42 49/52/42 91/74/42
f 91/74/43 49/52/43 11/44/43 52/41/43
f 47/75/44 91/74/44 52/41/44 9/40/44
f 14/61/45 46/76/45 92/77/45 50/62/45
f 46/76/46 10/73/46 47/75/46 92/77/46
f 92/77/47 47/75/47 9/40/47 55/78/47
f 50/62/48 92/77/48 55/78/48 13/63/48
f 17/79/49 64/80/49 93/81/49 67/82/49
f 64/80/50 19/83/50 63/84/50 93/81/50
f 93/81/51 63/84/51 23/85/51 66/86/51
f 67/82/52 93/81/52 66/86/52 21/87/52
f 20/88/53 65/89/53 94/90/53 61/91/53
f 65/89/54 24/92/54 60/93/54 94/90/54
f 94/90/55 60/93/55 23/94/55 63/95/55
f 61/91/56 94/90/56 63/95/56 19/83/56
f 24/96/57 57/97/57 95/98/57 60/99/57
f 57/97/58 22/100/58 62/101/58 95/98/58
f 95/98/59 62/101/59 21/102/59 66/103/59
f 60/99/60 95/98/60 66/103/60 23/104/60
f 22/105/61 57/106/61 96/107/61 58/108/61
f 57/106/62 24/109/62 65/110/62 96/107/62
f 96/107/63 65/110/63 20/88/63 68/111/63
f 58/108/64 96/107/64 68/111/64 18/112/64
f 18/112/65 68/111/65 97/113/65 59/114/65
f 68/111/66 20/88/66 61/91/66 97/113/66
f 97/113/67 61/91/67 19/83/67 64/80/67
f 59/114/68 97/113/68 64/80/68 17/79/68
f 22/100/69 58/115/69 98/116/69 62/101/69
f 58/115/70 18/112/70 59/114/70 98/116/70
f 98/116/71 59/114/71 17/79/71 67/117/71
f 62/101/72 98/116/72 67/117/72 21/102/72
f 25/118/73 79/119/73 99/120/73 76/121/73
f 79/119/74 29/122/74 78/123/74 99/120/74
f 99/120/75 78/123/75 31/124/75 75/125/75
f 76/121/76 99/120/76 75/125/76 27/126/76
f 28/127/77 73/128/77 100/129/77 77/130/77
f 73/128/78 27/126/78 75/131/78 100/129/78
f 100/129/79 75/131/79 31/132/79 72/133/79
f 77/130/80 100/129/80 72/133/80 32/134/80
f 32/135/81 72/136/81 101/137/81 69/138/81
f 72/136/82 31/139/82 78/140/82 101/137/82
f 101/137/83 78/140/83 29/141/83 74/142/83
f 69/138/84 101/137/84 74/142/84 30/143/84
f 30/144/85 70/145/85 102/146/85 69/147/85
f 70/145/86 26/148/86 80/149/86 102/146/86
f 102/146/87 80/149/87 28/127/87 77/150/87
f 69/147/88 102/146/88 77/150/88 32/151/88
f 26/148/89 71/152/89 103/153/89 80/149/89
f 71/152/90 25/118/90 76/121/90 103/153/90
f 103/153/91 76/121/91 27/126/91 73/128/91
f 80/149/92 103/153/92 73/128/92 28/127/92
f 30/143/93 74/142/93 104/154/93 70/155/93
f 74/142/94 29/141/94 79/156/94 104/154/94
f 104/154/95 79/156/95 25/118/95 71/152/95
f 70/155/96 104/154/96 71/152/96 26/148/96
