# Blender v2.93.4 OBJ File: 'Sword 2 continue.blend'
# www.blender.org
mtllib Sword 2 continue.mtl
o Cube
v 0.113396 -0.047151 -0.101498
v 0.124881 2.267669 -0.111778
v 0.113396 -0.047151 0.101498
v 0.124881 2.267669 0.111778
v -0.113396 -0.047151 -0.101498
v -0.124881 2.267669 -0.111778
v -0.113396 -0.047151 0.101498
v -0.124881 2.267669 0.111778
v -0.281822 2.340130 0.002461
v -0.281822 2.340130 -0.002461
v 0.281822 2.340130 0.002461
v 0.281822 2.340130 -0.002461
v -0.147389 2.267669 0.111778
v 0.147389 2.267669 0.111778
v -0.147389 2.267669 -0.111778
v 0.147389 2.267669 -0.111778
v -0.171810 2.305795 0.111778
v -0.171810 2.305795 -0.111778
v 0.171810 2.305795 0.111778
v 0.171810 2.305795 -0.111778
v 0.124881 0.134591 -0.111778
v -0.124881 0.134591 0.111778
v 0.124881 0.134591 0.111778
v -0.124881 0.134591 -0.111778
v -0.151090 0.040535 0.135237
v 0.151090 0.040535 -0.135237
v 0.151090 0.040535 0.135237
v -0.151090 0.040535 -0.135237
v -0.281822 7.489974 0.001574
v -0.281822 7.489974 -0.001574
v 0.281822 7.489974 0.001574
v 0.281822 7.489974 -0.001574
v -0.016352 7.965896 -0.000136
v -0.016352 7.965896 0.000136
v 0.016352 7.965896 -0.000136
v 0.016352 7.965896 0.000136
v 0.289628 6.173841 -0.001684
v 0.289628 6.173841 0.001684
v -0.289628 6.173841 0.001684
v -0.289628 6.173841 -0.001684
v -0.000787 7.982071 -0.000074
v -0.000787 7.982071 0.000074
v 0.000787 7.982071 -0.000074
v 0.000787 7.982071 0.000074
v 0.000000 2.267669 -0.111778
v 0.000000 -0.047151 0.101498
v 0.000000 2.267669 0.111778
v 0.000000 -0.047151 -0.101498
v 0.000000 2.340130 0.099881
v 0.000000 2.340130 -0.099881
v 0.000000 2.267669 -0.111778
v 0.000000 2.267669 0.111778
v 0.000000 2.305795 -0.111778
v 0.000000 2.305795 0.111778
v 0.000000 0.134591 -0.111778
v 0.000000 0.134591 0.111778
v 0.000000 0.040535 -0.135237
v 0.000000 0.040535 0.135237
v 0.000000 7.489974 0.063903
v 0.000000 7.489974 -0.063903
v 0.000000 7.965896 -0.005505
v 0.000000 7.965896 0.005505
v 0.000000 6.173841 -0.068369
v 0.000000 6.173841 0.068369
v 0.000000 7.982071 -0.000074
v 0.000000 7.982071 0.000074
vt 0.750000 0.500000
vt 0.875000 0.500000
vt 0.875000 0.750000
vt 0.750000 0.750000
vt 0.615530 0.875000
vt 0.625000 0.875000
vt 0.625000 1.000000
vt 0.615530 1.000000
vt 0.615530 0.000000
vt 0.625000 0.000000
vt 0.625000 0.250000
vt 0.615530 0.250000
vt 0.375000 0.875000
vt 0.375000 1.000000
vt 0.375000 1.000000
vt 0.375000 0.875000
vt 0.615530 0.500000
vt 0.625000 0.500000
vt 0.625000 0.750000
vt 0.615530 0.750000
vt 0.615530 0.375000
vt 0.625000 0.375000
vt 0.375000 0.500000
vt 0.375000 0.750000
vt 0.375000 0.750000
vt 0.375000 0.500000
vt 0.375000 0.000000
vt 0.375000 0.250000
vt 0.375000 0.250000
vt 0.375000 0.000000
vt 0.375000 0.500000
vt 0.375000 0.750000
vt 0.375000 0.750000
vt 0.375000 0.500000
vt 0.375000 0.375000
vt 0.375000 0.375000
vt 0.375000 0.500000
vt 0.375000 0.500000
vt 0.375000 0.500000
vt 0.375000 0.500000
vt 0.375000 0.750000
vt 0.375000 0.750000
vt 0.375000 0.000000
vt 0.375000 0.250000
vt 0.375000 0.250000
vt 0.375000 0.000000
vt 0.375000 0.000000
vt 0.375000 0.000000
vt 0.375000 0.375000
vt 0.375000 0.875000
vt 0.375000 1.000000
vt 0.375000 0.375000
vt 0.605372 0.375000
vt 0.605372 0.500000
vt 0.605372 0.750000
vt 0.605372 0.000000
vt 0.605372 0.250000
vt 0.375000 0.875000
vt 0.605372 0.875000
vt 0.605372 1.000000
vt 0.375000 1.000000
vt 0.375000 0.875000
vt 0.375000 1.000000
vt 0.375000 1.000000
vt 0.375000 0.875000
vt 0.375000 0.375000
vt 0.375000 0.375000
vt 0.375000 0.875000
vt 0.375000 1.000000
vt 0.375000 0.000000
vt 0.375000 0.250000
vt 0.375000 0.250000
vt 0.375000 0.000000
vt 0.375000 1.000000
vt 0.375000 0.875000
vt 0.375000 0.250000
vt 0.375000 0.000000
vt 0.375000 0.750000
vt 0.375000 0.500000
vt 0.375000 0.375000
vt 0.250000 0.500000
vt 0.375000 0.500000
vt 0.375000 0.750000
vt 0.250000 0.750000
vt 0.375000 0.250000
vt 0.375000 0.000000
vt 0.375000 0.375000
vt 0.125000 0.500000
vt 0.125000 0.750000
vt 0.375000 0.750000
vt 0.375000 0.750000
vt 0.375000 0.250000
vt 0.375000 0.250000
vn 0.0000 1.0000 0.0000
vn 0.0000 0.3591 -0.9333
vn 0.9187 0.3949 0.0000
vn -0.0414 -0.9804 -0.1926
vn -0.9187 0.3949 0.0000
vn 0.0000 0.3591 0.9333
vn 1.0000 0.0059 0.0000
vn 0.2979 0.9546 0.0000
vn -0.2979 0.9546 0.0000
vn 0.0414 -0.9804 0.1926
vn 0.0000 0.0000 1.0000
vn -0.8421 0.5394 0.0000
vn 0.8421 0.5394 0.0000
vn 0.0000 0.0000 -1.0000
vn -1.0000 0.0000 0.0000
vn 1.0000 0.0000 0.0000
vn 0.0000 -0.2420 0.9703
vn -0.9633 -0.2684 0.0000
vn 0.9633 -0.2684 0.0000
vn 0.0000 -0.2420 -0.9703
vn -0.1862 0.1247 -0.9746
vn 0.2202 0.0023 0.9754
vn -0.2202 0.0023 -0.9754
vn -1.0000 0.0059 0.0000
vn 0.2859 -0.2925 -0.9125
vn -0.8733 0.4871 0.0000
vn 0.8733 0.4871 0.0000
vn 0.1862 0.1247 0.9746
vn -1.0000 -0.0020 0.0000
vn -0.2760 0.0038 -0.9611
vn 0.2760 0.0038 0.9611
vn 1.0000 -0.0020 0.0000
vn 0.0000 -1.0000 0.0000
vn 0.7206 -0.6934 0.0000
vn -0.7206 -0.6934 0.0000
vn -0.2859 -0.2925 0.9125
vn 0.2859 -0.2925 0.9125
vn -0.2760 0.0038 0.9611
vn 0.2760 0.0038 -0.9611
vn -0.1862 0.1247 0.9746
vn -0.2859 -0.2925 -0.9125
vn 0.2202 0.0023 -0.9754
vn -0.2202 0.0023 0.9754
vn 0.1862 0.1247 -0.9746
vn -0.0414 -0.9804 0.1926
vn 0.0414 -0.9804 -0.1926
usemtl Material
s off
f 48/1/1 5/2/1 7/3/1 46/4/1
f 58/5/2 46/6/2 7/7/2 25/8/2
f 25/9/3 7/10/3 5/11/3 28/12/3
f 54/13/4 17/14/4 10/15/4 50/16/4
f 26/17/5 1/18/5 3/19/5 27/20/5
f 57/21/6 48/22/6 1/18/6 26/17/6
f 38/23/7 37/24/7 32/25/7 31/26/7
f 17/27/8 18/28/8 9/29/8 10/30/8
f 20/31/9 19/32/9 12/33/9 11/34/9
f 53/35/10 20/31/10 11/34/10 49/36/10
f 45/37/11 2/38/11 16/39/11 51/40/11
f 2/38/1 4/41/1 14/42/1 16/39/1
f 8/43/1 6/44/1 15/45/1 13/46/1
f 47/47/11 8/43/11 13/46/11 52/48/11
f 51/49/11 16/39/11 20/31/11 53/35/11
f 16/39/12 14/42/12 19/32/12 20/31/12
f 13/46/13 15/45/13 18/28/13 17/27/13
f 52/50/14 13/51/14 17/14/14 54/13/14
f 45/52/11 55/53/11 21/54/11 2/38/11
f 2/38/15 21/54/15 23/55/15 4/41/15
f 8/43/16 22/56/16 24/57/16 6/44/16
f 47/58/14 56/59/14 22/60/14 8/61/14
f 55/53/17 57/21/17 26/17/17 21/54/17
f 21/54/18 26/17/18 27/20/18 23/55/18
f 22/56/19 25/9/19 28/12/19 24/57/19
f 56/59/20 58/5/20 25/8/20 22/60/20
f 60/62/21 30/63/21 34/64/21 62/65/21
f 64/66/22 38/23/22 31/26/22 59/67/22
f 63/68/23 40/69/23 30/63/23 60/62/23
f 40/70/24 39/71/24 29/72/24 30/73/24
f 62/65/25 34/64/25 42/74/25 66/75/25
f 30/73/26 29/72/26 33/76/26 34/77/26
f 31/26/27 32/25/27 36/78/27 35/79/27
f 59/67/28 31/26/28 35/79/28 61/80/28
f 10/30/29 9/29/29 39/71/29 40/70/29
f 50/16/30 10/15/30 40/69/30 63/68/30
f 49/36/31 11/34/31 38/23/31 64/66/31
f 11/34/32 12/33/32 37/24/32 38/23/32
f 65/81/33 43/82/33 44/83/33 66/84/33
f 34/77/34 33/76/34 41/85/34 42/86/34
f 35/79/35 36/78/35 44/83/35 43/82/35
f 61/80/36 35/79/36 43/82/36 65/87/36
f 33/76/37 61/80/37 65/87/37 41/85/37
f 41/88/33 65/81/33 66/84/33 42/89/33
f 9/29/38 49/36/38 64/66/38 39/71/38
f 12/33/39 50/16/39 63/68/39 37/24/39
f 29/72/40 59/67/40 61/80/40 33/76/40
f 36/78/41 62/65/41 66/75/41 44/83/41
f 37/24/42 63/68/42 60/62/42 32/25/42
f 39/71/43 64/66/43 59/67/43 29/72/43
f 32/25/44 60/62/44 62/65/44 36/78/44
f 23/55/20 27/20/20 58/5/20 56/59/20
f 24/57/17 28/12/17 57/21/17 55/53/17
f 4/41/14 23/55/14 56/59/14 47/58/14
f 6/44/11 24/57/11 55/53/11 45/52/11
f 14/42/14 52/50/14 54/13/14 19/32/14
f 15/45/11 51/49/11 53/35/11 18/28/11
f 4/41/11 47/90/11 52/91/11 14/42/11
f 6/44/11 45/92/11 51/93/11 15/45/11
f 18/28/45 53/35/45 49/36/45 9/29/45
f 28/12/6 5/11/6 48/22/6 57/21/6
f 19/32/46 54/13/46 50/16/46 12/33/46
f 27/20/2 3/19/2 46/6/2 58/5/2
f 1/18/1 48/1/1 46/4/1 3/19/1
